<mxfile host="app.diagrams.net" agent="Mozilla/5.0 (Macintosh; Intel Mac OS X 10_15_7) AppleWebKit/537.36 (KHTML, like Gecko) Chrome/133.0.0.0 Safari/537.36" version="24.9.1">
  <diagram name="第 1 页" id="tFIhgkfVT1giUzdc8tJq">
    <mxGraphModel dx="1746" dy="1015" grid="1" gridSize="10" guides="1" tooltips="1" connect="1" arrows="1" fold="1" page="1" pageScale="1" pageWidth="827" pageHeight="1169" math="0" shadow="0">
      <root>
        <mxCell id="0" />
        <mxCell id="1" parent="0" />
        <mxCell id="OF3y5XibO_kih-v8HmWe-1" value="asdfasdfad" style="rounded=0;whiteSpace=wrap;html=1;" parent="1" vertex="1">
          <mxGeometry x="110" y="340" width="120" height="60" as="geometry" />
        </mxCell>
        <mxCell id="U0vM6W35GN4b-dAEHtp3-1" value="asdfasdf" style="rounded=0;whiteSpace=wrap;html=1;" vertex="1" parent="1">
          <mxGeometry x="350" y="490" width="120" height="60" as="geometry" />
        </mxCell>
        <mxCell id="U0vM6W35GN4b-dAEHtp3-3" style="edgeStyle=orthogonalEdgeStyle;rounded=0;orthogonalLoop=1;jettySize=auto;html=1;exitX=1;exitY=1;exitDx=0;exitDy=0;" edge="1" parent="1" source="U0vM6W35GN4b-dAEHtp3-2">
          <mxGeometry relative="1" as="geometry">
            <mxPoint x="780" y="750" as="targetPoint" />
          </mxGeometry>
        </mxCell>
        <UserObject label="&lt;img src=&quot;data:image/png;base64,iVBORw0KGgoAAAANSUhEUgAAAbkAAADnCAYAAACDpygbAAAAAXNSR0IArs4c6QAACEV0RVh0bXhmaWxlACUzQ214ZmlsZSUyMGhvc3QlM0QlMjJhcHAuZGlhZ3JhbXMubmV0JTIyJTIwYWdlbnQlM0QlMjJNb3ppbGxhJTJGNS4wJTIwKE1hY2ludG9zaCUzQiUyMEludGVsJTIwTWFjJTIwT1MlMjBYJTIwMTBfMTVfNyklMjBBcHBsZVdlYktpdCUyRjUzNy4zNiUyMChLSFRNTCUyQyUyMGxpa2UlMjBHZWNrbyklMjBDaHJvbWUlMkYxMzMuMC4wLjAlMjBTYWZhcmklMkY1MzcuMzYlMjIlMjB2ZXJzaW9uJTNEJTIyMjQuOS4xJTIyJTNFJTBBJTIwJTIwJTNDZGlhZ3JhbSUyMG5hbWUlM0QlMjIlRTclQUMlQUMlMjAxJTIwJUU5JUExJUI1JTIyJTIwaWQlM0QlMjJ0RkloZ2tmVlQxZ2lVemRjOHRKcSUyMiUzRSUwQSUyMCUyMCUyMCUyMCUzQ214R3JhcGhNb2RlbCUyMGR4JTNEJTIyMTc0NiUyMiUyMGR5JTNEJTIyMTAxNSUyMiUyMGdyaWQlM0QlMjIxJTIyJTIwZ3JpZFNpemUlM0QlMjIxMCUyMiUyMGd1aWRlcyUzRCUyMjElMjIlMjB0b29sdGlwcyUzRCUyMjElMjIlMjBjb25uZWN0JTNEJTIyMSUyMiUyMGFycm93cyUzRCUyMjElMjIlMjBmb2xkJTNEJTIyMSUyMiUyMHBhZ2UlM0QlMjIxJTIyJTIwcGFnZVNjYWxlJTNEJTIyMSUyMiUyMHBhZ2VXaWR0aCUzRCUyMjgyNyUyMiUyMHBhZ2VIZWlnaHQlM0QlMjIxMTY5JTIyJTIwbWF0aCUzRCUyMjAlMjIlMjBzaGFkb3clM0QlMjIwJTIyJTNFJTBBJTIwJTIwJTIwJTIwJTIwJTIwJTNDcm9vdCUzRSUwQSUyMCUyMCUyMCUyMCUyMCUyMCUyMCUyMCUzQ214Q2VsbCUyMGlkJTNEJTIyMCUyMiUyMCUyRiUzRSUwQSUyMCUyMCUyMCUyMCUyMCUyMCUyMCUyMCUzQ214Q2VsbCUyMGlkJTNEJTIyMSUyMiUyMHBhcmVudCUzRCUyMjAlMjIlMjAlMkYlM0UlMEElMjAlMjAlMjAlMjAlMjAlMjAlMjAlMjAlM0NteENlbGwlMjBpZCUzRCUyMk9GM3k1WGliT19raWgtdjhIbVdlLTElMjIlMjB2YWx1ZSUzRCUyMmFzZGZhc2RmYWQlMjIlMjBzdHlsZSUzRCUyMnJvdW5kZWQlM0QwJTNCd2hpdGVTcGFjZSUzRHdyYXAlM0JodG1sJTNEMSUzQiUyMiUyMHBhcmVudCUzRCUyMjElMjIlMjB2ZXJ0ZXglM0QlMjIxJTIyJTNFJTBBJTIwJTIwJTIwJTIwJTIwJTIwJTIwJTIwJTIwJTIwJTNDbXhHZW9tZXRyeSUyMHglM0QlMjIxMTAlMjIlMjB5JTNEJTIyMzQwJTIyJTIwd2lkdGglM0QlMjIxMjAlMjIlMjBoZWlnaHQlM0QlMjI2MCUyMiUyMGFzJTNEJTIyZ2VvbWV0cnklMjIlMjAlMkYlM0UlMEElMjAlMjAlMjAlMjAlMjAlMjAlMjAlMjAlM0MlMkZteENlbGwlM0UlMEElMjAlMjAlMjAlMjAlMjAlMjAlMjAlMjAlM0NteENlbGwlMjBpZCUzRCUyMlUwdk02VzM1R040Yi1kQUVIdHAzLTElMjIlMjB2YWx1ZSUzRCUyMmFzZGZhc2RmJTIyJTIwc3R5bGUlM0QlMjJyb3VuZGVkJTNEMCUzQndoaXRlU3BhY2UlM0R3cmFwJTNCaHRtbCUzRDElM0IlMjIlMjB2ZXJ0ZXglM0QlMjIxJTIyJTIwcGFyZW50JTNEJTIyMSUyMiUzRSUwQSUyMCUyMCUyMCUyMCUyMCUyMCUyMCUyMCUyMCUyMCUzQ214R2VvbWV0cnklMjB4JTNEJTIyMzUwJTIyJTIweSUzRCUyMjQ5MCUyMiUyMHdpZHRoJTNEJTIyMTIwJTIyJTIwaGVpZ2h0JTNEJTIyNjAlMjIlMjBhcyUzRCUyMmdlb21ldHJ5JTIyJTIwJTJGJTNFJTBBJTIwJTIwJTIwJTIwJTIwJTIwJTIwJTIwJTNDJTJGbXhDZWxsJTNFJTBBJTIwJTIwJTIwJTIwJTIwJTIwJTIwJTIwJTNDbXhDZWxsJTIwaWQlM0QlMjJVMHZNNlczNUdONGItZEFFSHRwMy0yJTIyJTIwdmFsdWUlM0QlMjJPYmplY3QlMjIlMjBzdHlsZSUzRCUyMmh0bWwlM0QxJTNCd2hpdGVTcGFjZSUzRHdyYXAlM0IlMjIlMjB2ZXJ0ZXglM0QlMjIxJTIyJTIwcGFyZW50JTNEJTIyMSUyMiUzRSUwQSUyMCUyMCUyMCUyMCUyMCUyMCUyMCUyMCUyMCUyMCUzQ214R2VvbWV0cnklMjB4JTNEJTIyNDMwJTIyJTIweSUzRCUyMjMzMCUyMiUyMHdpZHRoJTNEJTIyMTEwJTIyJTIwaGVpZ2h0JTNEJTIyNTAlMjIlMjBhcyUzRCUyMmdlb21ldHJ5JTIyJTIwJTJGJTNFJTBBJTIwJTIwJTIwJTIwJTIwJTIwJTIwJTIwJTNDJTJGbXhDZWxsJTNFJTBBJTIwJTIwJTIwJTIwJTIwJTIwJTNDJTJGcm9vdCUzRSUwQSUyMCUyMCUyMCUyMCUzQyUyRm14R3JhcGhNb2RlbCUzRSUwQSUyMCUyMCUzQyUyRmRpYWdyYW0lM0UlMEElM0MlMkZteGZpbGUlM0UlMEG3ugE0AAAb1UlEQVR4Xu2dCdBXUx/Hf70qS1PI1qRkyTKWstRki0QoKhlLjN0opqTsSpYoIWtN1sLQYi2yjWWQnURJCIkKlaISIZ53vmfep0nxes79P////55zPnem4X2c/73n9/n+nz7vOffcc2sYBwQgAAEIQCBSAjUirYuyIAABCEAAAobk+BJAAAIQgEC0BJBctNFSGAQgAAEIIDm+AxCAAAQgEC0BJBdttBQGAQhkJFCR8XN8rPwE1nAakit/KPQAAhDIF4GKigo8l69I/r03NWo4nSG5f0dFCwhAIHECSC7ALwCSCzA0ugwBCJSFAJIrC/bCLorkCuPHpyEAgXQIILkAs0ZyAYZGlyEAgbIQQHJlwV7YRZFcYfz4NAQgkA4BJBdg1kguwNDoMgQgUBYCSK4s2Au7KJIrjB+fhgAE0iGA5ALMGskFGBpdhgAEykIAyZUFe2EX9ZUcT0IWxjuET7MRQAgp0cdyEEBy5aBe4DW9JccT/wUSz/HH/+nLkOMu0zUIlJIAkisl7Wq6FpKrJpAxnAbJxZAiNRSRAJIrItxinRrJFYtsgOdFcgGGRpdLSQDJlZJ2NV0LyVUTyBhOg+RiSJEaikgAyRURbrFOjeSKRTbA8yK5AEOjy6UkgORKSbuaroXkqglkDKdBcjGkSA1FJIDkigi3WKdGcsUiG+B5kVyAodHlUhJAcqWkXU3XQnLVBDKG0yC5GFKkhiISQHJFhFusUyO5YpEN8LxILsDQ6HIpCeReckuXLrW5c+dakyZNbN11113J5s8//zT9qVmzZil55eJaSC4XMeSjE0guHznQi9wSyK3kPv/8czv++OPt3XffXQmvbdu2du+991rjxo1t7NixNmzYMHvttdfWgHvFFVfYnDlz7O677/YG/+uvv9qoUaOsa9eutt5663l/vhQfQHKloBzINZBcIEHRzXIRyKXkvv32W9t+++2tc+fOdu2111rDhg3tyy+/tLPOOsvef/99++KLL+zJJ5/8R8lJkJLVTjvt5M110aJFttFGG7nRo66bxwPJ5TGVMvUJyZUJPJcNhUAuJXf55ZfbyJEj7bPPPrN11llnJcvvv//eNtlkE7vjjjusXr16dtVVV9kee+xh48ePt2bNmtntt99uO++8s40YMcLU9qKLLrLvvvvOzjnnHHv55ZetefPmTpq77babO+cjjzxi/fr1sx9//NGOPfZYu+6666x9+/aurc73wgsvuOvl7UByeUukjP1BcmWEz6VDIJBLyXXo0MHdg7vtttvWYHjggQc6AbVq1cqOO+44N6VZKagFCxbYRx995OSnkdhdd93l2m2wwQZ24YUX2osvvmiDBw+2H374wU1n7rLLLnbrrbfatttu60TYv39/23TTTe2QQw6xxx57zA477DCrXbt27nJEcrmLpHwdQnLlY8+VgyCQS8lpdHbwwQfbNddcswbEQw891Bo1amQHHXSQk9zixYvdqG7q1KlupPbJJ5/Y6NGjneQ0vdmiRQs31bnllluaNuNv0KCBDR8+3CZNmmSvv/66TZw40V1Do7avv/7ajjjiCKYrg/jq0klHAMnxRYDA/yWQS8lJNPPmzbM333zzL53/7bffbO2113YjtaZNm9ott9yyss2KFSusVq1a7n8/88wzTnIakR1zzDFrANAI8aWXXnKjtqFDh/7lv3NPjt+YoAgguaDiorOlJ5BLyWkE17dvX3dfTYtAKg+NvPbdd1975ZVX7JtvvnH307QIRYcWm2jacdmyZe6+myQnwUl0ui9Xt25d12769Okrp0InT57s7ufp0CpOTWHuv//+jORK/z3kilkJILms5PhcIgRyKTmNpjS9uPfee7sVlLo/N23aNDvqqKPcz3VvTY8QaLpy3Lhxpvt0F198sVuo8txzz5kWrkhyuv+mhSPXX3+99erVy55//nk7/PDD3bl++eUX0yMJGvXtsMMObnr07LPPdtOVG264oWuTZXVmKb433JMrBeVAroHkAgmKbpaLQC4lJxhaQKKRmEZelYcWmdx5551Wp04dJzmN5H766SebP3++G6lJWPvss89Kyek5uQcffNA981Z5DBo0yC655BL3IPnpp5/unrvT0bFjR3vooYfcak6NFjVqzOtjBEiuXL8uObwuksthKHQpTwRyK7lKSLo3p+lGTUX+3cPZkpUWlmyxxRbunpwOyU+fq3wYXFOYarP55pu7Udqqx8KFC22ttdZyKzBXPbQCc/W2eQkOyeUliRz0A8nlIAS6kGcCuZecL7ynnnrKTU2eeuqpdumll/p+PIj2SC6ImErTSSRXGs5cJVgC0UlOqya136WetYt1X0skF+zvW/V3HMlVP1POGBWB6CQXVTr/UAySSyHlKtaI5KoIimapEkByASaflOT0AOSqQ3IN0/U6iuoYpq9+bt8bsXl4FQaSC/A3mC6XkgCSKyXtarpWUpLTdjavvvqq286me/fubnnthx9+6DYpLeTQMyLa103b4EhuWl6rbXOWLFlS5dNqs1Q9s6I94Mp1ILlykee6gRBAcoEEtWo3k5Tcjjvu6DYS1bMdeoCy0GNVyWlvN+0C8PPPP//lpYX/dg0k92+E+O8QKDsBJFf2CPw7EJTktH3NAw88YJoa1I7XejJfz2zoKX7tjv3ee++5J/D11L9GbZKPdsvW9jN6wHHAgAH2wQcf2JVXXuk+s/vuu7uHHzXi0kOPGuW1bNnSvXKidevWjqa2vNFrLCQtjf70TImg6bUT6o+ur50AKrfGadeunXsgU6+gePrpp+3xxx+3G264wT799FO3S4B2FdDzJ5qe1J5y2hxVOxToZ9o8lZGc/5eYT0CgRASQXIlAV+dlgpGcphW1k7amGPXQ4dFHH+3ehyQZaSsaPX2vn5933nl28skn27nnnmvbbLONeyhST+prc1KN3CQ5PeyoJ/21C4CmFvW+pDZt2tgZZ5zhfqadACTId955xzp16uRENWvWLOvWrZvbfXuzzTZz2+Xo+RLtAH7BBRe4XQS09Y3e3aRXUGjqURLVW3kvu+wy9woL7S+nrW9uuukmdx2dT8LVRqraZqdLly5Irjq/3ZwLAtVLAMlVL8+SnC0YyX388cfufpdkoZGZJKfRnB5i1EhIu2Ofcsoppn3cJJv//Oc/tt1225nembTxxhu7N+RKOpKc9l7TdjTarHTrrbd2wtFzIoIhoZ144onuHBMmTHBb5Wjvt/3228+N0CTUZ5991m6++WabMmWKC0kjR+3jpntyeu5Eo0btIKC+6IWCRx55pOuHRpLqh15Bf9JJJ7lzaZSnQ210MJIryfeei0AgCwEkl4VamT8TjORmz57tpgrvv//+lTtka9SmzUUlivPPP9+hlPg0UtK9Mb25VtOEOv744w+3ivLvJKf3JWlEpdGYpDdz5kwnOW17o1Hgfffd564poWqKUtOW2tam8rUTb7/9tu25555rSE6vlL/66qvdKFIrOfVeJwlZktN0qqZBtYmqjiFDhtgbb7yB5Mr8C8HlIfB/CCC5AL8ewUiuT58+9tZbb7lRl0ShEZam/nr27OlGeJoWlCQkPf275KTdtn///Xcnt6+++spNMa4uOY2+9K4liUznnDFjhlt9KclpNKb3MemPpil1LUlLr63QiKzytROjRo2yE044YQ3J6b6fRmh64eCuu+7qpjJ1D06S06amGo3qnqEOTV3qVRmM5AL8LaLLqRBAcgEmHYzk9MqHrbbayo2e9F4j3UPr3bu3W2iif5e8NAqT5LQARbLQNKUWlJx22mluqlCLQ1aXnMSiKVDtoK13MWnaUa+B1307/VP358aMGWPrr7++u47EtNdee7nFJpra1KMD2u1br6VYfbryxhtvtBEjRrhpTU1dajGKVnXqRYUabWoRjRa+aMSn8+k+IZIL8LeILqdCAMkFmHQwktNCjsqpPd3L0j003QuTtAYOHGgPP/ywe3OtphHvuece92iAhKjFITokED27plGU7slpdKZpSY3utPhEG5XqkDg12tIiF0lKr4PXPUBNVzZr1syeeOIJdw2N+h599FH3mc6dOzvhSXK6B6d7eppe1YhPC2N0P05Hjx493OpKjeh0TV2j8tUYmmbVfUKt2izXwXNy5SLPdQMhgOQCCWrVbgYjOXVaIx6JQ2JSxyWP+vXru2X8mo7UKkWtplz10EhNS/M1yvtfsX8bk6Skc+ndS8uXL3d/JDNdUzLUys0GDRr85bNacSkxrf7zVRtJfFrgoj5r2lR90WhOO63oUQj9t4YNG668z1jO7xCSKyd9rh0AASQXQEirdzEoyQXIN6guI7mg4qKzpSeA5ErPvOArIrmCEcZzAiQXT5ZUUhQCSK4oWIt7UiRXXL5BnR3JBRUXnS09ASRXeuYFXxHJFYwwnhMguXiypJKiEEByRcFa3JMiueLyDersSC6ouOhs6QkgudIzL/iKSK5ghPGcAMnFkyWVFIVARVHOyklLQaDG6hdZ4wf/a8D/kylFHGW6BpIrE3guCwEIlJwAkis58vJfEMmVPwN6AAEIlIYAkisN51xdBcnlKg46AwEIFJEAkisi3LyeGsnlNRn6BQEIVDcBJFfdRAM4H5ILICS6CAEIVAsBJFctGMM6CZILKy96CwEIZCeA5LKzC/aTSC7Y6Og4BCDgSQDJeQKLoTmSiyFFaoAABKpCAMlVhVJkbZBcZIFSDgQg8I8EkFyCXw4kl2DolAyBRAkguQSDR3IJhk7JEEiUAJJLMHgkl2DolAyBRAkguQSDR3IJhk7JEEiUAJJLMHgkl2DolAyBRAkguQSDR3IJhk7JEEiUAJJLMHgkl2DolAyBRAkguQSDR3IJhk7JEEiUAJJLMHgkl2DolAyBRAkguQSDR3IJhk7JEEiUwD9KLlEeKZX9T9mnxIBaIQCByAnwF13kAVMeBCAAgZQJILmU06d2CEAAApETQHKRB0x5EIAABFImgORSTp/aIQABCEROAMlFHjDlQQACEEiZAJJLOX1qhwAEIBA5ASQXecCUBwEIQCBlAkgu5fSpHQIQgEDkBJBc5AFTHgQgAIGUCSC5lNOndghAAAKRE0BykQdMeRCAAARSJoDkUk6f2iEAAQhETgDJRR4w5UEAAhBImQCSSzl9aocABCAQOQEkF3nAlAcBCEAgZQJILuX0qR0CEIBA5ASQXOQBUx4EIACBlAkguZTTp3YIQAACkRNAcpEHTHkQgAAEUiaA5FJOn9ohAAEIRE4AyUUeMOVBAAIQSJkAkks5fWqHAAQgEDkBJBd5wJQHAQhAIGUCSC7l9KkdAhCAQOQEkFzkAVMeBCAAgZQJILmU06d2CEAAApETQHKRB0x5EIAABFImgORSTp/aIQABCEROAMlFHjDlQQACEEiZAJJLOX1qhwAEIBA5ASQXecCUBwEIQCBlAkgu5fSpHQIQgEDkBJBc5AFTHgQgAIGUCSC5lNOndghAAAKRE0BykQdMeRCAAARSJoDkUk6f2iEAAQhETgDJRR4w5UEAAhBImQCSSzl9aocABCAQOQEkF3nAlAcBCEAgZQJILuX0qR0CEIBA5ASQXOQBUx4EIACBlAkguZTTp3YIQAACkRNAcpEHTHkQgAAEUiaA5FJOn9ohAAEIRE4AyUUeMOVBAAIQSJkAkks5fWqHAAQgEDkBJBd5wJQHAQhAIGUCSC7l9KkdAhCAQOQEkFzkAVMeBCAAgZQJILmU06d2CEAAApETQHKRB0x5EIAABFImgORSTp/aIQABCEROAMlFHjDlQQACEEiZAJJLOX1qhwAEIBA5ASQXecCUBwEIQCBlAkgu5fSpHQIQgEDkBJBc5AFTHgQgAIGUCSC5lNOndghAAAKRE0BykQdMeRCAAARSJoDkUk6f2iEAAQhETgDJRR4w5UEAAhBImQCSSzl9aocABCAQOQEkF3nAlAcBCEAgZQJILuX0qR0CEIBA5ASQXOQBUx4EIACBlAkguZTTp3YIQAACkRNAcpEHTHkQgAAEUiaA5FJOn9ohAAEIRE4AyUUeMOVBAAIQSJkAkks5fWqHAAQgEDkBJBd5wJQHAQhAIGUCSC7l9KkdAhCAQOQEkFzkAVMeBCAAgZQJILmU06d2CEAAApETQHKRB0x5EIAABFImgORSTp/aIQABCEROAMlFHjDlQQACEEiZAJJLOX1qhwAEIBA5ASQXecCUBwEIQCBlAkgu5fSpHQIQgEDkBJBc5AFTHgQgAIGUCSC5lNOndghAAAKRE0BykQdMeRCAAARSJoDkUk6f2iEAAQhETgDJRR4w5UEAAhBImQCSSzl9aocABCAQOQEkF3nAlAcBCEAgZQJILuX0qR0CEIBA5ASQXOQBUx4EIACBlAkguZTTp/ZYCVTEWhh1rSTA391V/DIAqoqgaAaBgAhUVFTguYDy8upqjRrur23+7q4iNUBVERTNIBAQASQXUFi+XUVyfsSQnB8vWkMgBAJILoSUMvYRyfmBQ3J+vGgNgRAIILkQUsrYRyTnBw7J+fGiNQRCIIDkQkgpYx+RnB84JOfHi9YQCIEAkgshpYx9RHJ+4JCcHy9aQyAEAkguhJQy9hHJ+YFDcn68aA2BEAgguRBSythHJOcHDsn58aI1BEIggORCSCljH5GcHzgk58eL1hAIgQCSCyGljH1Ecn7gkJwfL1pDIAQCSC6ElDL2Ecn5gUNyfrxoDYEQCCC5EFLK2Eck5wcOyfnxojUEQiCA5EJIKWMfkZwfOCTnx4vWEAiBAJILIaWMfURyfuCQnB8vWkMgBAJILoSUMvYRyfmBQ3J+vGgNgRAIILkQUsrYRyTnBw7J+fGiNQRCIIDkQkgpYx+RnB84JOfHi9YQCIEAkgshpYx9RHJ+4JCcHy9aQyAEAkguhJQy9hHJ+YFDcn68aA2BEAgguRBSythHJOcHDsn58aI1BEIggORCSCljH5GcHzgk58eL1hAIgQCSCyGljH1Ecn7gkJwfL1pDIAQCSC6ElDL2Ecn5gUNyfrxoDYEQCEQruRUrVljNmjVXZvDDDz/YhhtuWHAmf/75p+lP5bl//fVX++OPP2y99dYr+NzVfQIk50cUyfnxojUEQiAQpeSmTZtmu+yyi1VUVJjk1rFjR5s6daotWbKk4Exuv/12e+655+yxxx6zESNGWJ8+fWzIkCHWrVu3gs9d3SdAcn5EkZwfL1pDIAQC0Utu4sSJtv/++9vPP/9s6667bsGZrCq5Aw44wA499FC76KKLCj5vMU6A5PyoIjk/XrSGQAgEcim5yZMn26BBg+zVV1+1li1bOom0bt3a8bz22mtt5MiRTlrdu3e3fv36mf4yf+SRR+yaa66xtdZay9q2bevazZ0719q1a2fTp0+39u3b29NPP22PP/643XDDDfbpp5/awQcfbIMHD7bNN9/cjfiuuOIKGzt2rG288cbu5xoBamryqquustGjR1uTJk1c28WLF7t+9e3b17beemu7/vrr7cgjj8xd3kjOLxIk58eL1hAIgUAuJbf99ttbmzZt7IwzznDSeeaZZ0xTkO+884516tTJiWrWrFluivCFF16wzTbbzLbcckvr1auX7bHHHnbBBRfY/Pnz7ZdffrE77rjD+vfv76YYd999d2vcuLFddtll1qpVKyepnXbayW666SY35ahzDRw40J599lm79NJLbfny5TZu3Dh3nSuvvNJ+++03u/jii61Lly5OokcccYT706NHD2vYsGHu8kZyfpEgOT9etIZACARyKTmJrUOHDm6EJqGdeOKJTlgTJkywY445xl588UXbb7/93Ahtk002cVK6+eabbcqUKY75sGHD7Oyzz3b35F566SXr2rWrzZs3zxYtWmQvv/yyG3UtWLDABgwYYO+//7699tprTlRvvfWW3XfffU58r7/+upPimWee6a6h0Z+OyhGb7smpDxKx+pfHA8n5pYLk/HjRGgIhEMil5IYPH+5GThqNaTpw5syZTnK1atWy008/3Ymobt26duqpp7opSk1bbrDBBjZ06FDH/O2337Y999xzDclpJeTVV19tt9xyiy1dutQaNWrkpiAluTlz5jgZSm66phaU9OzZ0+rVq+emR4866ih3bo343njjDbfwBMmF8BWveh+RXNVZ0RICoRDIneS++OILa9q0qROZRm0zZsyw5s2bO8lpNLb22mu7P5palIQkrW+++caNyMaPH++4jxo1yk444YQ1JKepR43EJk2aZLvuuqubytS9NklO06FbbbWVLVy40I0eNfWpkaJGakcffbSdc8457tyauvz++++RXCjfcI9+IjkPWDSFQCAEcic53XfT/TItGtloo43ctONdd91ly5Ytc//U/bkxY8bY+uuv7+7bSUB77bWXW2wiOenRgeOPP96ef/75NSR34403umX/mtbU1KUWo9SuXdvefPNNd2+tWbNm7v6dRnm6thbAaHrzgQcesAcffNA0EtR19tlnHyQXyBfcp5tIzocWbSEQBoHcSU730bSq8amnnnIEe/fu7UZbBx10kElSLVq0cFOLmq6UlJ544gk3ValR36OPPuo+07lzZyc8nUuS0j2z2bNnuxGfVmnqfpwO3YfTKkqN6LbddlsnMJ1Xh853991327fffuuurVGdjsMOO8zWWWcdt5pT05Ua2WnUmMeDe3J+qSA5P160hkAIBHInuUpoklL9+vWtTp06bpWj/khmGk3pHp12L2nQoMFfGGvFpQS0+s9XbSTxaUpUqzG1a4keB9BoTs/Q6WFxnWObbbZx1608tHuKPqMVlJUSDCFcJOeXEpLz40VrCIRAILeSCwFe3vuI5PwSQnJ+vGgNgRAIILkQUsrYRyTnBw7J+fGiNQRCIIDkQkgpYx+RnB84JOfHi9YQCIEAkgshpYx9RHJ+4JCcHy9aQyAEAkguhJQy9hHJ+YFDcn68aA2BEAgguRBSythHJOcHDsn58aI1BEIggORCSCljH5GcHzgk58eL1hAIgQCSCyGljH1Ecn7gkJwfL1pDIAQCSC6ElDL2Ecn5gUNyfrxoDYEQCCC5EFLK2Eck5wcOyfnxojUEQiCA5EJIKWMfkZwfOCTnx4vWEAiBAJILIaWMfURyfuCQnB8vWkMgBAJILoSUMvYRyfmBQ3J+vGgNgRAIILkQUsrYRyTnBw7J+fGiNQRCIIDkQkgpYx+RnB84JOfHi9YQCIEAkgshpYx9RHJ+4JCcHy9aQyAEAkguhJQy9hHJ+YFDcn68aA2BEAgguRBSythHJOcHDsn58aI1BEIggORCSCljH5GcHzgk58eL1hAIgQCSCyGljH1Ecn7gkJwfL1pDIAQCSC6ElDL2Ecn5gUNyfrxoDYEQCCC5EFLK2Eck5wcOyfnxojUEQiCA5EJIKWMfkZwfOCTnx4vWEAiBAJILIaWMfURyfuCQnB8vWkMgBAJILoSUMvYRyfmBQ3J+vGgNgRAIVITQSfpYEAH+7q4iPkBVERTNIAABCEAgPAJILrzM6DEEIAABCFSRAJKrIiiaQQACEIBAeASQXHiZ0WMIQAACEKgiASRXRVA0gwAEIACB8Aj8F7EjeG/2YDDcAAAAAElFTkSuQmCC&quot; style=&quot;cursor:pointer;max-width:100%;&quot; onclick=&quot;(function(img){if(img.wnd!=null&amp;&amp;!img.wnd.closed){img.wnd.focus();}else{var r=function(evt){if(evt.data==&#39;ready&#39;&amp;&amp;evt.source==img.wnd){img.wnd.postMessage(decodeURIComponent(img.getAttribute(&#39;src&#39;)),&#39;*&#39;);window.removeEventListener(&#39;message&#39;,r);}};window.addEventListener(&#39;message&#39;,r);img.wnd=window.open(&#39;https://viewer.diagrams.net/?client=1&amp;page=0&amp;edit=_blank&#39;);}})(this);&quot;/&gt;" link="&lt;img src=&quot;data:image/png;base64,iVBORw0KGgoAAAANSUhEUgAAAbkAAADnCAYAAACDpygbAAAAAXNSR0IArs4c6QAACEV0RVh0bXhmaWxlACUzQ214ZmlsZSUyMGhvc3QlM0QlMjJhcHAuZGlhZ3JhbXMubmV0JTIyJTIwYWdlbnQlM0QlMjJNb3ppbGxhJTJGNS4wJTIwKE1hY2ludG9zaCUzQiUyMEludGVsJTIwTWFjJTIwT1MlMjBYJTIwMTBfMTVfNyklMjBBcHBsZVdlYktpdCUyRjUzNy4zNiUyMChLSFRNTCUyQyUyMGxpa2UlMjBHZWNrbyklMjBDaHJvbWUlMkYxMzMuMC4wLjAlMjBTYWZhcmklMkY1MzcuMzYlMjIlMjB2ZXJzaW9uJTNEJTIyMjQuOS4xJTIyJTNFJTBBJTIwJTIwJTNDZGlhZ3JhbSUyMG5hbWUlM0QlMjIlRTclQUMlQUMlMjAxJTIwJUU5JUExJUI1JTIyJTIwaWQlM0QlMjJ0RkloZ2tmVlQxZ2lVemRjOHRKcSUyMiUzRSUwQSUyMCUyMCUyMCUyMCUzQ214R3JhcGhNb2RlbCUyMGR4JTNEJTIyMTc0NiUyMiUyMGR5JTNEJTIyMTAxNSUyMiUyMGdyaWQlM0QlMjIxJTIyJTIwZ3JpZFNpemUlM0QlMjIxMCUyMiUyMGd1aWRlcyUzRCUyMjElMjIlMjB0b29sdGlwcyUzRCUyMjElMjIlMjBjb25uZWN0JTNEJTIyMSUyMiUyMGFycm93cyUzRCUyMjElMjIlMjBmb2xkJTNEJTIyMSUyMiUyMHBhZ2UlM0QlMjIxJTIyJTIwcGFnZVNjYWxlJTNEJTIyMSUyMiUyMHBhZ2VXaWR0aCUzRCUyMjgyNyUyMiUyMHBhZ2VIZWlnaHQlM0QlMjIxMTY5JTIyJTIwbWF0aCUzRCUyMjAlMjIlMjBzaGFkb3clM0QlMjIwJTIyJTNFJTBBJTIwJTIwJTIwJTIwJTIwJTIwJTNDcm9vdCUzRSUwQSUyMCUyMCUyMCUyMCUyMCUyMCUyMCUyMCUzQ214Q2VsbCUyMGlkJTNEJTIyMCUyMiUyMCUyRiUzRSUwQSUyMCUyMCUyMCUyMCUyMCUyMCUyMCUyMCUzQ214Q2VsbCUyMGlkJTNEJTIyMSUyMiUyMHBhcmVudCUzRCUyMjAlMjIlMjAlMkYlM0UlMEElMjAlMjAlMjAlMjAlMjAlMjAlMjAlMjAlM0NteENlbGwlMjBpZCUzRCUyMk9GM3k1WGliT19raWgtdjhIbVdlLTElMjIlMjB2YWx1ZSUzRCUyMmFzZGZhc2RmYWQlMjIlMjBzdHlsZSUzRCUyMnJvdW5kZWQlM0QwJTNCd2hpdGVTcGFjZSUzRHdyYXAlM0JodG1sJTNEMSUzQiUyMiUyMHBhcmVudCUzRCUyMjElMjIlMjB2ZXJ0ZXglM0QlMjIxJTIyJTNFJTBBJTIwJTIwJTIwJTIwJTIwJTIwJTIwJTIwJTIwJTIwJTNDbXhHZW9tZXRyeSUyMHglM0QlMjIxMTAlMjIlMjB5JTNEJTIyMzQwJTIyJTIwd2lkdGglM0QlMjIxMjAlMjIlMjBoZWlnaHQlM0QlMjI2MCUyMiUyMGFzJTNEJTIyZ2VvbWV0cnklMjIlMjAlMkYlM0UlMEElMjAlMjAlMjAlMjAlMjAlMjAlMjAlMjAlM0MlMkZteENlbGwlM0UlMEElMjAlMjAlMjAlMjAlMjAlMjAlMjAlMjAlM0NteENlbGwlMjBpZCUzRCUyMlUwdk02VzM1R040Yi1kQUVIdHAzLTElMjIlMjB2YWx1ZSUzRCUyMmFzZGZhc2RmJTIyJTIwc3R5bGUlM0QlMjJyb3VuZGVkJTNEMCUzQndoaXRlU3BhY2UlM0R3cmFwJTNCaHRtbCUzRDElM0IlMjIlMjB2ZXJ0ZXglM0QlMjIxJTIyJTIwcGFyZW50JTNEJTIyMSUyMiUzRSUwQSUyMCUyMCUyMCUyMCUyMCUyMCUyMCUyMCUyMCUyMCUzQ214R2VvbWV0cnklMjB4JTNEJTIyMzUwJTIyJTIweSUzRCUyMjQ5MCUyMiUyMHdpZHRoJTNEJTIyMTIwJTIyJTIwaGVpZ2h0JTNEJTIyNjAlMjIlMjBhcyUzRCUyMmdlb21ldHJ5JTIyJTIwJTJGJTNFJTBBJTIwJTIwJTIwJTIwJTIwJTIwJTIwJTIwJTNDJTJGbXhDZWxsJTNFJTBBJTIwJTIwJTIwJTIwJTIwJTIwJTIwJTIwJTNDbXhDZWxsJTIwaWQlM0QlMjJVMHZNNlczNUdONGItZEFFSHRwMy0yJTIyJTIwdmFsdWUlM0QlMjJPYmplY3QlMjIlMjBzdHlsZSUzRCUyMmh0bWwlM0QxJTNCd2hpdGVTcGFjZSUzRHdyYXAlM0IlMjIlMjB2ZXJ0ZXglM0QlMjIxJTIyJTIwcGFyZW50JTNEJTIyMSUyMiUzRSUwQSUyMCUyMCUyMCUyMCUyMCUyMCUyMCUyMCUyMCUyMCUzQ214R2VvbWV0cnklMjB4JTNEJTIyNDMwJTIyJTIweSUzRCUyMjMzMCUyMiUyMHdpZHRoJTNEJTIyMTEwJTIyJTIwaGVpZ2h0JTNEJTIyNTAlMjIlMjBhcyUzRCUyMmdlb21ldHJ5JTIyJTIwJTJGJTNFJTBBJTIwJTIwJTIwJTIwJTIwJTIwJTIwJTIwJTNDJTJGbXhDZWxsJTNFJTBBJTIwJTIwJTIwJTIwJTIwJTIwJTNDJTJGcm9vdCUzRSUwQSUyMCUyMCUyMCUyMCUzQyUyRm14R3JhcGhNb2RlbCUzRSUwQSUyMCUyMCUzQyUyRmRpYWdyYW0lM0UlMEElM0MlMkZteGZpbGUlM0UlMEG3ugE0AAAb1UlEQVR4Xu2dCdBXUx/Hf70qS1PI1qRkyTKWstRki0QoKhlLjN0opqTsSpYoIWtN1sLQYi2yjWWQnURJCIkKlaISIZ53vmfep0nxes79P////55zPnem4X2c/73n9/n+nz7vOffcc2sYBwQgAAEIQCBSAjUirYuyIAABCEAAAobk+BJAAAIQgEC0BJBctNFSGAQgAAEIIDm+AxCAAAQgEC0BJBdttBQGAQhkJFCR8XN8rPwE1nAakit/KPQAAhDIF4GKigo8l69I/r03NWo4nSG5f0dFCwhAIHECSC7ALwCSCzA0ugwBCJSFAJIrC/bCLorkCuPHpyEAgXQIILkAs0ZyAYZGlyEAgbIQQHJlwV7YRZFcYfz4NAQgkA4BJBdg1kguwNDoMgQgUBYCSK4s2Au7KJIrjB+fhgAE0iGA5ALMGskFGBpdhgAEykIAyZUFe2EX9ZUcT0IWxjuET7MRQAgp0cdyEEBy5aBe4DW9JccT/wUSz/HH/+nLkOMu0zUIlJIAkisl7Wq6FpKrJpAxnAbJxZAiNRSRAJIrItxinRrJFYtsgOdFcgGGRpdLSQDJlZJ2NV0LyVUTyBhOg+RiSJEaikgAyRURbrFOjeSKRTbA8yK5AEOjy6UkgORKSbuaroXkqglkDKdBcjGkSA1FJIDkigi3WKdGcsUiG+B5kVyAodHlUhJAcqWkXU3XQnLVBDKG0yC5GFKkhiISQHJFhFusUyO5YpEN8LxILsDQ6HIpCeReckuXLrW5c+dakyZNbN11113J5s8//zT9qVmzZil55eJaSC4XMeSjE0guHznQi9wSyK3kPv/8czv++OPt3XffXQmvbdu2du+991rjxo1t7NixNmzYMHvttdfWgHvFFVfYnDlz7O677/YG/+uvv9qoUaOsa9eutt5663l/vhQfQHKloBzINZBcIEHRzXIRyKXkvv32W9t+++2tc+fOdu2111rDhg3tyy+/tLPOOsvef/99++KLL+zJJ5/8R8lJkJLVTjvt5M110aJFttFGG7nRo66bxwPJ5TGVMvUJyZUJPJcNhUAuJXf55ZfbyJEj7bPPPrN11llnJcvvv//eNtlkE7vjjjusXr16dtVVV9kee+xh48ePt2bNmtntt99uO++8s40YMcLU9qKLLrLvvvvOzjnnHHv55ZetefPmTpq77babO+cjjzxi/fr1sx9//NGOPfZYu+6666x9+/aurc73wgsvuOvl7UByeUukjP1BcmWEz6VDIJBLyXXo0MHdg7vtttvWYHjggQc6AbVq1cqOO+44N6VZKagFCxbYRx995OSnkdhdd93l2m2wwQZ24YUX2osvvmiDBw+2H374wU1n7rLLLnbrrbfatttu60TYv39/23TTTe2QQw6xxx57zA477DCrXbt27nJEcrmLpHwdQnLlY8+VgyCQS8lpdHbwwQfbNddcswbEQw891Bo1amQHHXSQk9zixYvdqG7q1KlupPbJJ5/Y6NGjneQ0vdmiRQs31bnllluaNuNv0KCBDR8+3CZNmmSvv/66TZw40V1Do7avv/7ajjjiCKYrg/jq0klHAMnxRYDA/yWQS8lJNPPmzbM333zzL53/7bffbO2113YjtaZNm9ott9yyss2KFSusVq1a7n8/88wzTnIakR1zzDFrANAI8aWXXnKjtqFDh/7lv3NPjt+YoAgguaDiorOlJ5BLyWkE17dvX3dfTYtAKg+NvPbdd1975ZVX7JtvvnH307QIRYcWm2jacdmyZe6+myQnwUl0ui9Xt25d12769Okrp0InT57s7ufp0CpOTWHuv//+jORK/z3kilkJILms5PhcIgRyKTmNpjS9uPfee7sVlLo/N23aNDvqqKPcz3VvTY8QaLpy3Lhxpvt0F198sVuo8txzz5kWrkhyuv+mhSPXX3+99erVy55//nk7/PDD3bl++eUX0yMJGvXtsMMObnr07LPPdtOVG264oWuTZXVmKb433JMrBeVAroHkAgmKbpaLQC4lJxhaQKKRmEZelYcWmdx5551Wp04dJzmN5H766SebP3++G6lJWPvss89Kyek5uQcffNA981Z5DBo0yC655BL3IPnpp5/unrvT0bFjR3vooYfcak6NFjVqzOtjBEiuXL8uObwuksthKHQpTwRyK7lKSLo3p+lGTUX+3cPZkpUWlmyxxRbunpwOyU+fq3wYXFOYarP55pu7Udqqx8KFC22ttdZyKzBXPbQCc/W2eQkOyeUliRz0A8nlIAS6kGcCuZecL7ynnnrKTU2eeuqpdumll/p+PIj2SC6ImErTSSRXGs5cJVgC0UlOqya136WetYt1X0skF+zvW/V3HMlVP1POGBWB6CQXVTr/UAySSyHlKtaI5KoIimapEkByASaflOT0AOSqQ3IN0/U6iuoYpq9+bt8bsXl4FQaSC/A3mC6XkgCSKyXtarpWUpLTdjavvvqq286me/fubnnthx9+6DYpLeTQMyLa103b4EhuWl6rbXOWLFlS5dNqs1Q9s6I94Mp1ILlykee6gRBAcoEEtWo3k5Tcjjvu6DYS1bMdeoCy0GNVyWlvN+0C8PPPP//lpYX/dg0k92+E+O8QKDsBJFf2CPw7EJTktH3NAw88YJoa1I7XejJfz2zoKX7tjv3ee++5J/D11L9GbZKPdsvW9jN6wHHAgAH2wQcf2JVXXuk+s/vuu7uHHzXi0kOPGuW1bNnSvXKidevWjqa2vNFrLCQtjf70TImg6bUT6o+ur50AKrfGadeunXsgU6+gePrpp+3xxx+3G264wT799FO3S4B2FdDzJ5qe1J5y2hxVOxToZ9o8lZGc/5eYT0CgRASQXIlAV+dlgpGcphW1k7amGPXQ4dFHH+3ehyQZaSsaPX2vn5933nl28skn27nnnmvbbLONeyhST+prc1KN3CQ5PeyoJ/21C4CmFvW+pDZt2tgZZ5zhfqadACTId955xzp16uRENWvWLOvWrZvbfXuzzTZz2+Xo+RLtAH7BBRe4XQS09Y3e3aRXUGjqURLVW3kvu+wy9woL7S+nrW9uuukmdx2dT8LVRqraZqdLly5Irjq/3ZwLAtVLAMlVL8+SnC0YyX388cfufpdkoZGZJKfRnB5i1EhIu2Ofcsoppn3cJJv//Oc/tt1225nembTxxhu7N+RKOpKc9l7TdjTarHTrrbd2wtFzIoIhoZ144onuHBMmTHBb5Wjvt/3228+N0CTUZ5991m6++WabMmWKC0kjR+3jpntyeu5Eo0btIKC+6IWCRx55pOuHRpLqh15Bf9JJJ7lzaZSnQ210MJIryfeei0AgCwEkl4VamT8TjORmz57tpgrvv//+lTtka9SmzUUlivPPP9+hlPg0UtK9Mb25VtOEOv744w+3ivLvJKf3JWlEpdGYpDdz5kwnOW17o1Hgfffd564poWqKUtOW2tam8rUTb7/9tu25555rSE6vlL/66qvdKFIrOfVeJwlZktN0qqZBtYmqjiFDhtgbb7yB5Mr8C8HlIfB/CCC5AL8ewUiuT58+9tZbb7lRl0ShEZam/nr27OlGeJoWlCQkPf275KTdtn///Xcnt6+++spNMa4uOY2+9K4liUznnDFjhlt9KclpNKb3MemPpil1LUlLr63QiKzytROjRo2yE044YQ3J6b6fRmh64eCuu+7qpjJ1D06S06amGo3qnqEOTV3qVRmM5AL8LaLLqRBAcgEmHYzk9MqHrbbayo2e9F4j3UPr3bu3W2iif5e8NAqT5LQARbLQNKUWlJx22mluqlCLQ1aXnMSiKVDtoK13MWnaUa+B1307/VP358aMGWPrr7++u47EtNdee7nFJpra1KMD2u1br6VYfbryxhtvtBEjRrhpTU1dajGKVnXqRYUabWoRjRa+aMSn8+k+IZIL8LeILqdCAMkFmHQwktNCjsqpPd3L0j003QuTtAYOHGgPP/ywe3OtphHvuece92iAhKjFITokED27plGU7slpdKZpSY3utPhEG5XqkDg12tIiF0lKr4PXPUBNVzZr1syeeOIJdw2N+h599FH3mc6dOzvhSXK6B6d7eppe1YhPC2N0P05Hjx493OpKjeh0TV2j8tUYmmbVfUKt2izXwXNy5SLPdQMhgOQCCWrVbgYjOXVaIx6JQ2JSxyWP+vXru2X8mo7UKkWtplz10EhNS/M1yvtfsX8bk6Skc+ndS8uXL3d/JDNdUzLUys0GDRr85bNacSkxrf7zVRtJfFrgoj5r2lR90WhOO63oUQj9t4YNG668z1jO7xCSKyd9rh0AASQXQEirdzEoyQXIN6guI7mg4qKzpSeA5ErPvOArIrmCEcZzAiQXT5ZUUhQCSK4oWIt7UiRXXL5BnR3JBRUXnS09ASRXeuYFXxHJFYwwnhMguXiypJKiEEByRcFa3JMiueLyDersSC6ouOhs6QkgudIzL/iKSK5ghPGcAMnFkyWVFIVARVHOyklLQaDG6hdZ4wf/a8D/kylFHGW6BpIrE3guCwEIlJwAkis58vJfEMmVPwN6AAEIlIYAkisN51xdBcnlKg46AwEIFJEAkisi3LyeGsnlNRn6BQEIVDcBJFfdRAM4H5ILICS6CAEIVAsBJFctGMM6CZILKy96CwEIZCeA5LKzC/aTSC7Y6Og4BCDgSQDJeQKLoTmSiyFFaoAABKpCAMlVhVJkbZBcZIFSDgQg8I8EkFyCXw4kl2DolAyBRAkguQSDR3IJhk7JEEiUAJJLMHgkl2DolAyBRAkguQSDR3IJhk7JEEiUAJJLMHgkl2DolAyBRAkguQSDR3IJhk7JEEiUAJJLMHgkl2DolAyBRAkguQSDR3IJhk7JEEiUAJJLMHgkl2DolAyBRAkguQSDR3IJhk7JEEiUwD9KLlEeKZX9T9mnxIBaIQCByAnwF13kAVMeBCAAgZQJILmU06d2CEAAApETQHKRB0x5EIAABFImgORSTp/aIQABCEROAMlFHjDlQQACEEiZAJJLOX1qhwAEIBA5ASQXecCUBwEIQCBlAkgu5fSpHQIQgEDkBJBc5AFTHgQgAIGUCSC5lNOndghAAAKRE0BykQdMeRCAAARSJoDkUk6f2iEAAQhETgDJRR4w5UEAAhBImQCSSzl9aocABCAQOQEkF3nAlAcBCEAgZQJILuX0qR0CEIBA5ASQXOQBUx4EIACBlAkguZTTp3YIQAACkRNAcpEHTHkQgAAEUiaA5FJOn9ohAAEIRE4AyUUeMOVBAAIQSJkAkks5fWqHAAQgEDkBJBd5wJQHAQhAIGUCSC7l9KkdAhCAQOQEkFzkAVMeBCAAgZQJILmU06d2CEAAApETQHKRB0x5EIAABFImgORSTp/aIQABCEROAMlFHjDlQQACEEiZAJJLOX1qhwAEIBA5ASQXecCUBwEIQCBlAkgu5fSpHQIQgEDkBJBc5AFTHgQgAIGUCSC5lNOndghAAAKRE0BykQdMeRCAAARSJoDkUk6f2iEAAQhETgDJRR4w5UEAAhBImQCSSzl9aocABCAQOQEkF3nAlAcBCEAgZQJILuX0qR0CEIBA5ASQXOQBUx4EIACBlAkguZTTp3YIQAACkRNAcpEHTHkQgAAEUiaA5FJOn9ohAAEIRE4AyUUeMOVBAAIQSJkAkks5fWqHAAQgEDkBJBd5wJQHAQhAIGUCSC7l9KkdAhCAQOQEkFzkAVMeBCAAgZQJILmU06d2CEAAApETQHKRB0x5EIAABFImgORSTp/aIQABCEROAMlFHjDlQQACEEiZAJJLOX1qhwAEIBA5ASQXecCUBwEIQCBlAkgu5fSpHQIQgEDkBJBc5AFTHgQgAIGUCSC5lNOndghAAAKRE0BykQdMeRCAAARSJoDkUk6f2iEAAQhETgDJRR4w5UEAAhBImQCSSzl9aocABCAQOQEkF3nAlAcBCEAgZQJILuX0qR0CEIBA5ASQXOQBUx4EIACBlAkguZTTp3YIQAACkRNAcpEHTHkQgAAEUiaA5FJOn9ohAAEIRE4AyUUeMOVBAAIQSJkAkks5fWqHAAQgEDkBJBd5wJQHAQhAIGUCSC7l9KkdAhCAQOQEkFzkAVMeBCAAgZQJILmU06d2CEAAApETQHKRB0x5EIAABFImgORSTp/aIQABCEROAMlFHjDlQQACEEiZAJJLOX1qhwAEIBA5ASQXecCUBwEIQCBlAkgu5fSpHQIQgEDkBJBc5AFTHgQgAIGUCSC5lNOndghAAAKRE0BykQdMeRCAAARSJoDkUk6f2iEAAQhETgDJRR4w5UEAAhBImQCSSzl9aocABCAQOQEkF3nAlAcBCEAgZQJILuX0qR0CEIBA5ASQXOQBUx4EIACBlAkguZTTp/ZYCVTEWhh1rSTA391V/DIAqoqgaAaBgAhUVFTguYDy8upqjRrur23+7q4iNUBVERTNIBAQASQXUFi+XUVyfsSQnB8vWkMgBAJILoSUMvYRyfmBQ3J+vGgNgRAIILkQUsrYRyTnBw7J+fGiNQRCIIDkQkgpYx+RnB84JOfHi9YQCIEAkgshpYx9RHJ+4JCcHy9aQyAEAkguhJQy9hHJ+YFDcn68aA2BEAgguRBSythHJOcHDsn58aI1BEIggORCSCljH5GcHzgk58eL1hAIgQCSCyGljH1Ecn7gkJwfL1pDIAQCSC6ElDL2Ecn5gUNyfrxoDYEQCCC5EFLK2Eck5wcOyfnxojUEQiCA5EJIKWMfkZwfOCTnx4vWEAiBAJILIaWMfURyfuCQnB8vWkMgBAJILoSUMvYRyfmBQ3J+vGgNgRAIILkQUsrYRyTnBw7J+fGiNQRCIIDkQkgpYx+RnB84JOfHi9YQCIEAkgshpYx9RHJ+4JCcHy9aQyAEAkguhJQy9hHJ+YFDcn68aA2BEAgguRBSythHJOcHDsn58aI1BEIggORCSCljH5GcHzgk58eL1hAIgQCSCyGljH1Ecn7gkJwfL1pDIAQCSC6ElDL2Ecn5gUNyfrxoDYEQCEQruRUrVljNmjVXZvDDDz/YhhtuWHAmf/75p+lP5bl//fVX++OPP2y99dYr+NzVfQIk50cUyfnxojUEQiAQpeSmTZtmu+yyi1VUVJjk1rFjR5s6daotWbKk4Exuv/12e+655+yxxx6zESNGWJ8+fWzIkCHWrVu3gs9d3SdAcn5EkZwfL1pDIAQC0Utu4sSJtv/++9vPP/9s6667bsGZrCq5Aw44wA499FC76KKLCj5vMU6A5PyoIjk/XrSGQAgEcim5yZMn26BBg+zVV1+1li1bOom0bt3a8bz22mtt5MiRTlrdu3e3fv36mf4yf+SRR+yaa66xtdZay9q2bevazZ0719q1a2fTp0+39u3b29NPP22PP/643XDDDfbpp5/awQcfbIMHD7bNN9/cjfiuuOIKGzt2rG288cbu5xoBamryqquustGjR1uTJk1c28WLF7t+9e3b17beemu7/vrr7cgjj8xd3kjOLxIk58eL1hAIgUAuJbf99ttbmzZt7IwzznDSeeaZZ0xTkO+884516tTJiWrWrFluivCFF16wzTbbzLbcckvr1auX7bHHHnbBBRfY/Pnz7ZdffrE77rjD+vfv76YYd999d2vcuLFddtll1qpVKyepnXbayW666SY35ahzDRw40J599lm79NJLbfny5TZu3Dh3nSuvvNJ+++03u/jii61Lly5OokcccYT706NHD2vYsGHu8kZyfpEgOT9etIZACARyKTmJrUOHDm6EJqGdeOKJTlgTJkywY445xl588UXbb7/93Ahtk002cVK6+eabbcqUKY75sGHD7Oyzz3b35F566SXr2rWrzZs3zxYtWmQvv/yyG3UtWLDABgwYYO+//7699tprTlRvvfWW3XfffU58r7/+upPimWee6a6h0Z+OyhGb7smpDxKx+pfHA8n5pYLk/HjRGgIhEMil5IYPH+5GThqNaTpw5syZTnK1atWy008/3Ymobt26duqpp7opSk1bbrDBBjZ06FDH/O2337Y999xzDclpJeTVV19tt9xyiy1dutQaNWrkpiAluTlz5jgZSm66phaU9OzZ0+rVq+emR4866ih3bo343njjDbfwBMmF8BWveh+RXNVZ0RICoRDIneS++OILa9q0qROZRm0zZsyw5s2bO8lpNLb22mu7P5palIQkrW+++caNyMaPH++4jxo1yk444YQ1JKepR43EJk2aZLvuuqubytS9NklO06FbbbWVLVy40I0eNfWpkaJGakcffbSdc8457tyauvz++++RXCjfcI9+IjkPWDSFQCAEcic53XfT/TItGtloo43ctONdd91ly5Ytc//U/bkxY8bY+uuv7+7bSUB77bWXW2wiOenRgeOPP96ef/75NSR34403umX/mtbU1KUWo9SuXdvefPNNd2+tWbNm7v6dRnm6thbAaHrzgQcesAcffNA0EtR19tlnHyQXyBfcp5tIzocWbSEQBoHcSU730bSq8amnnnIEe/fu7UZbBx10kElSLVq0cFOLmq6UlJ544gk3ValR36OPPuo+07lzZyc8nUuS0j2z2bNnuxGfVmnqfpwO3YfTKkqN6LbddlsnMJ1Xh853991327fffuuurVGdjsMOO8zWWWcdt5pT05Ua2WnUmMeDe3J+qSA5P160hkAIBHInuUpoklL9+vWtTp06bpWj/khmGk3pHp12L2nQoMFfGGvFpQS0+s9XbSTxaUpUqzG1a4keB9BoTs/Q6WFxnWObbbZx1608tHuKPqMVlJUSDCFcJOeXEpLz40VrCIRAILeSCwFe3vuI5PwSQnJ+vGgNgRAIILkQUsrYRyTnBw7J+fGiNQRCIIDkQkgpYx+RnB84JOfHi9YQCIEAkgshpYx9RHJ+4JCcHy9aQyAEAkguhJQy9hHJ+YFDcn68aA2BEAgguRBSythHJOcHDsn58aI1BEIggORCSCljH5GcHzgk58eL1hAIgQCSCyGljH1Ecn7gkJwfL1pDIAQCSC6ElDL2Ecn5gUNyfrxoDYEQCCC5EFLK2Eck5wcOyfnxojUEQiCA5EJIKWMfkZwfOCTnx4vWEAiBAJILIaWMfURyfuCQnB8vWkMgBAJILoSUMvYRyfmBQ3J+vGgNgRAIILkQUsrYRyTnBw7J+fGiNQRCIIDkQkgpYx+RnB84JOfHi9YQCIEAkgshpYx9RHJ+4JCcHy9aQyAEAkguhJQy9hHJ+YFDcn68aA2BEAgguRBSythHJOcHDsn58aI1BEIggORCSCljH5GcHzgk58eL1hAIgQCSCyGljH1Ecn7gkJwfL1pDIAQCSC6ElDL2Ecn5gUNyfrxoDYEQCCC5EFLK2Eck5wcOyfnxojUEQiCA5EJIKWMfkZwfOCTnx4vWEAiBAJILIaWMfURyfuCQnB8vWkMgBAJILoSUMvYRyfmBQ3J+vGgNgRAIVITQSfpYEAH+7q4iPkBVERTNIAABCEAgPAJILrzM6DEEIAABCFSRAJKrIiiaQQACEIBAeASQXHiZ0WMIQAACEKgiASRXRVA0gwAEIACB8Aj8F7EjeG/2YDDcAAAAAElFTkSuQmCC&quot; style=&quot;cursor:pointer;max-width:100%;&quot; onclick=&quot;(function(img){if(img.wnd!=null&amp;&amp;!img.wnd.closed){img.wnd.focus();}else{var r=function(evt){if(evt.data==&#39;ready&#39;&amp;&amp;evt.source==img.wnd){img.wnd.postMessage(decodeURIComponent(img.getAttribute(&#39;src&#39;)),&#39;*&#39;);window.removeEventListener(&#39;message&#39;,r);}};window.addEventListener(&#39;message&#39;,r);img.wnd=window.open(&#39;https://viewer.diagrams.net/?client=1&amp;page=0&amp;edit=_blank&#39;);}})(this);&quot;/&gt;" id="U0vM6W35GN4b-dAEHtp3-2">
          <mxCell style="html=1;whiteSpace=wrap;" vertex="1" parent="1">
            <mxGeometry x="60" y="710" width="480" height="220" as="geometry" />
          </mxCell>
        </UserObject>
      </root>
    </mxGraphModel>
  </diagram>
</mxfile>
